<?xml version="1.0" encoding="iso-8859-1"?>
<!-- Generator: Adobe Illustrator 15.0.2, SVG Export Plug-In . SVG Version: 6.00 Build 0)  -->
<!DOCTYPE svg PUBLIC "-//W3C//DTD SVG 1.1//EN" "http://www.w3.org/Graphics/SVG/1.1/DTD/svg11.dtd">
<svg version="1.1" id="Layer_1" xmlns="http://www.w3.org/2000/svg" xmlns:xlink="http://www.w3.org/1999/xlink" x="0px" y="0px"
	 width="283.252px" height="392.373px" viewBox="0 0 283.252 392.373" style="enable-background:new 0 0 283.252 392.373;"
	 xml:space="preserve">
<style type="text/css">
<![CDATA[
	.st0{fill:#ED1C24;}
	.st1{fill:#FFFFFF;}
	.st2{fill:#FFFFFF;stroke:#000000;stroke-width:1.8719;stroke-miterlimit:10;}
]]>
</style>
<path class="st2" d="M280.94,363.685c0,14.128-10.655,25.587-23.798,25.587H26.109c-13.142,0-23.797-11.459-23.797-25.587V28.892
	c0-14.131,10.655-25.588,23.797-25.588h231.033c13.143,0,23.798,11.458,23.798,25.588V363.685z"/>
<circle class="st0" cx="141.626" cy="144.818" r="115.238"/>
<circle class="st1" cx="141.626" cy="144.818" r="101.689"/>
<g>
	<path d="M109.96,87.5l1.603-1.122l9.7,12.185c-8.551,5.516-15.646,11.54-21.283,18.072c-5.639,6.533-9.98,14.216-13.026,23.052
		c5.932-3.046,11.836-4.569,17.716-4.569c8.818,0,16.246,3.126,22.286,9.379c6.039,6.252,9.059,13.922,9.059,23.007
		c0,9.353-3.287,17.289-9.86,23.809c-6.573,6.521-14.563,9.779-23.969,9.779c-10.529,0-19.039-3.699-25.532-11.103
		c-6.493-7.401-9.74-17.087-9.74-29.059c0-8.978,1.67-17.917,5.01-26.814c3.339-8.898,8.149-17.235,14.429-25.011
		C92.631,101.329,100.501,94.128,109.96,87.5z M83.506,156.281c-0.428,2.513-0.641,5.318-0.641,8.417
		c0,6.306,1.83,11.491,5.491,15.551c3.66,4.062,8.35,6.093,14.068,6.093c5.131,0,9.366-1.736,12.706-5.211
		c3.339-3.473,5.01-7.856,5.01-13.146c0-5.397-1.777-9.766-5.331-13.107c-3.555-3.339-8.244-5.01-14.068-5.01
		c-2.994,0-5.706,0.455-8.137,1.363C90.172,152.14,87.14,153.823,83.506,156.281z"/>
	<path d="M183.31,86.378c10.262,0,18.745,5.385,25.452,16.153c6.706,10.77,10.061,24.438,10.061,41.003
		c0,16.995-3.354,30.811-10.061,41.445c-6.707,10.636-15.405,15.952-26.093,15.952c-10.85,0-19.561-5.21-26.134-15.632
		c-6.573-10.421-9.86-24.235-9.86-41.444c0-16.995,3.393-30.823,10.181-41.484C163.643,91.709,172.46,86.378,183.31,86.378z
		 M183.471,101.609h-0.802c-6.146,0-11.022,3.782-14.63,11.343c-3.607,7.563-5.411,17.81-5.411,30.743
		c0,13.254,1.764,23.648,5.291,31.184c3.526,7.535,8.39,11.303,14.59,11.303c6.198,0,11.088-3.768,14.669-11.303
		c3.58-7.536,5.371-17.769,5.371-30.703c0-12.986-1.724-23.328-5.17-31.023C193.932,105.458,189.295,101.609,183.471,101.609z"/>
</g>
<g>
	<path d="M69.504,351.968l-6.159-17.976H40.582l-5.624,17.976h-6.427l20.018-61.56h8.77l20.152,61.56H69.504z M52.231,298.643
		l-9.574,29.458h19.047L52.231,298.643z"/>
	<path d="M126.67,351.968l-11.381-26.612H98.149v26.612h-7.666v-61.56h23.165c6.025,0,10.645,1.228,13.858,3.682
		c4.396,3.28,6.594,7.812,6.594,13.591c0,3.683-1.016,6.975-3.046,9.875c-2.031,2.901-4.81,4.865-8.335,5.892l12.051,28.521H126.67z
		 M112.711,319.063c2.477,0,4.513-0.218,6.109-0.653c1.595-0.435,3.074-1.355,4.435-2.762c2.098-2.097,3.146-4.798,3.146-8.101
		c0-3.838-1.417-6.717-4.251-8.637c-1.964-1.271-4.798-1.908-8.502-1.908H98.149v22.061H112.711z"/>
	<path d="M191.804,351.968h-39.769v-61.56H191v6.594h-31.266v19.583h24.805v6.193h-24.805v22.461h32.069V351.968z"/>
	<path d="M241.973,351.968l-6.159-17.976h-22.763l-5.624,17.976H201l20.018-61.56h8.771l20.152,61.56H241.973z M224.7,298.643
		l-9.574,29.458h19.048L224.7,298.643z"/>
</g>
</svg>
