<?xml version="1.0" encoding="UTF-8" standalone="no"?>
<svg
   xmlns:dc="http://purl.org/dc/elements/1.1/"
   xmlns:cc="http://creativecommons.org/ns#"
   xmlns:rdf="http://www.w3.org/1999/02/22-rdf-syntax-ns#"
   xmlns:svg="http://www.w3.org/2000/svg"
   xmlns="http://www.w3.org/2000/svg"
   xmlns:sodipodi="http://sodipodi.sourceforge.net/DTD/sodipodi-0.dtd"
   xmlns:inkscape="http://www.inkscape.org/namespaces/inkscape"
   id="Nederlands_verkeersbord_F7"
   width="62.8125"
   height="124.625"
   viewBox="0 0 62.8125 124.625"
   version="1.1"
   inkscape:version="0.48.2 r9819"
   sodipodi:docname="Australia R5-2 (horizontal - two times).svg">
  <metadata
     id="metadata9">
    <rdf:RDF>
      <cc:Work
         rdf:about="">
        <dc:format>image/svg+xml</dc:format>
        <dc:type
           rdf:resource="http://purl.org/dc/dcmitype/StillImage" />
        <dc:title></dc:title>
      </cc:Work>
    </rdf:RDF>
  </metadata>
  <defs
     id="defs7">
    <clipPath
       clipPathUnits="userSpaceOnUse"
       id="clipPath3441">
      <path
         inkscape:connector-curvature="0"
         d="m 233.858,445.744 99.213,0 0,-99.213 -99.213,0 0,99.213 z"
         clip-rule="evenodd"
         id="path3443" />
    </clipPath>
    <clipPath
       clipPathUnits="userSpaceOnUse"
       id="clipPath3447">
      <path
         inkscape:connector-curvature="0"
         d="m 0,842 595.276,0 0,-841.89 L 0,0.11 0,842 z"
         id="path3449" />
    </clipPath>
    <clipPath
       clipPathUnits="userSpaceOnUse"
       id="clipPath3453">
      <path
         inkscape:connector-curvature="0"
         d="m 0,841.98 595.2,0 L 595.2,0 0,0 0,841.98 z"
         id="path3455" />
    </clipPath>
  </defs>
  <sodipodi:namedview
     pagecolor="#ffffff"
     bordercolor="#666666"
     borderopacity="1"
     objecttolerance="10"
     gridtolerance="10"
     guidetolerance="10"
     inkscape:pageopacity="0"
     inkscape:pageshadow="2"
     inkscape:window-width="1280"
     inkscape:window-height="1004"
     id="namedview5"
     showgrid="false"
     fit-margin-top="0"
     fit-margin-left="0"
     fit-margin-right="0"
     fit-margin-bottom="0"
     inkscape:zoom="3.7069077"
     inkscape:cx="35.9089"
     inkscape:cy="23.151017"
     inkscape:window-x="-8"
     inkscape:window-y="-8"
     inkscape:window-maximized="1"
     inkscape:current-layer="Nederlands_verkeersbord_F7" />
  <path
     inkscape:connector-curvature="0"
     d="m 5.942512,0.504915 50.923748,0 c 2.9925,0 5.44125,2.44875 5.44125,5.44125 l 0,112.729995 c 0,2.99375 -2.44875,5.44125 -5.44125,5.44125 l -50.923748,0 c -2.9925,0 -5.44125,-2.4475 -5.44125,-5.44125 l 0,-112.729995 c 0,-2.9925 2.44875,-5.44125 5.44125,-5.44125 z"
     style="fill:#ffffff;fill-opacity:1;fill-rule:evenodd;stroke:#000000;stroke-width:1;stroke-linecap:butt;stroke-linejoin:miter;stroke-miterlimit:2.61299992;stroke-opacity:1;stroke-dasharray:none"
     id="path3403" />
  <path
     inkscape:connector-curvature="0"
     d="m 25.635012,27.974915 0,6.10875 7.78625,0 c 1.89875,0 3.715,-1.01875 3.715,-2.89 0,-2.1175 -1.65,-3.21875 -3.63125,-3.21875 l -7.87,0 z m -5.50375,-5.53 13.73125,0 c 3.7975,0 8.8325,2.80625 8.8325,8.915 0,3.79625 -3.935,8.19875 -8.035,8.19875 l -9.025,0 0,10.40125 -5.50375,0 0,-27.515"
     style="fill:#006330;fill-opacity:1;fill-rule:evenodd;stroke:none"
     id="path3407" />
  <path
     inkscape:connector-curvature="0"
     d="m 4.938762,75.989915 1.27875,0 3.69125,6.3075 0,-6.3075 1.54125,0 0,9.68875 -1.30875,0 -3.69125,-6.25875 0,6.25875 -1.51125,0 0,-9.68875"
     style="fill:#006330;fill-opacity:1;fill-rule:evenodd;stroke:none"
     id="path3411" />
  <path
     inkscape:connector-curvature="0"
     d="m 16.585012,85.864915 c -2.015,0 -3.42,-1.47375 -3.42,-5.04 0,-3.4975 1.28875,-5.0275 3.42,-5.0275 2.20875,0 3.39125,2.20875 3.39125,5.0275 0,2.4225 -0.64,5.04 -3.39125,5.04 z m 0,-1.5325 c 1.22125,0 1.81125,-1.0075 1.81125,-3.5075 0,-2.28625 -0.58125,-3.45875 -1.81125,-3.45875 -1.25,0 -1.89875,0.96 -1.89875,3.45875 0,2.39375 0.6875,3.5075 1.89875,3.5075"
     style="fill:#006330;fill-opacity:1;fill-rule:evenodd;stroke:none"
     id="path3415" />
  <path
     inkscape:connector-curvature="0"
     d="m 27.901262,75.989915 1.4825,0 0,8.265 4.4275,0 0,1.42375 -5.91,0 0,-9.68875"
     style="fill:#006330;fill-opacity:1;fill-rule:evenodd;stroke:none"
     id="path3419" />
  <path
     inkscape:connector-curvature="0"
     d="m 35.351262,85.678665 1.52125,0 0,-9.688625 -1.52125,0 0,9.688625 z"
     style="fill:#006330;fill-opacity:1;fill-rule:nonzero;stroke:none"
     id="path3421" />
  <path
     inkscape:connector-curvature="0"
     d="m 39.110012,75.989915 1.4625,0 2.32625,5.6 2.159998,-5.6 1.56,0 0,9.68875 -1.5025,0 0,-5.62 -2.198748,5.62 -2.2575,-5.62 0,5.62 -1.55,0 0,-9.68875"
     style="fill:#006330;fill-opacity:1;fill-rule:evenodd;stroke:none"
     id="path3425" />
  <path
     inkscape:connector-curvature="0"
     d="m 48.85626,85.678665 1.52125,0 0,-9.688625 -1.52125,0 0,9.688625 z"
     style="fill:#006330;fill-opacity:1;fill-rule:nonzero;stroke:none"
     id="path3427" />
  <path
     inkscape:connector-curvature="0"
     d="m 51.95751,75.989915 5.91,0 0,1.42375 -2.21875,0 0,8.265 -1.4625,0 0,-8.265 -2.22875,0 0,-1.42375"
     style="fill:#006330;fill-opacity:1;fill-rule:evenodd;stroke:none"
     id="path3431" />
  <path
     inkscape:connector-curvature="0"
     d="m 10.156262,116.26991 5.48375,-4.38625 6.03125,0 -3.42625,2.74125 26.318748,0 -3.426248,-2.74125 6.031248,0 5.48375,4.38625 -5.48375,4.38625 -6.031248,0 3.426248,-2.74125 -26.318748,0 3.42625,2.74125 -6.03125,0 -5.48375,-4.38625"
     style="fill:#006330;fill-opacity:1;fill-rule:evenodd;stroke:none"
     id="path3435" />
</svg>
