<?xml version="1.0" encoding="UTF-8" standalone="no"?>
<svg
   xmlns:dc="http://purl.org/dc/elements/1.1/"
   xmlns:cc="http://creativecommons.org/ns#"
   xmlns:rdf="http://www.w3.org/1999/02/22-rdf-syntax-ns#"
   xmlns:svg="http://www.w3.org/2000/svg"
   xmlns="http://www.w3.org/2000/svg"
   xmlns:sodipodi="http://sodipodi.sourceforge.net/DTD/sodipodi-0.dtd"
   xmlns:inkscape="http://www.inkscape.org/namespaces/inkscape"
   width="205.72217"
   height="205.96576"
   viewBox="0 0 580.59376 581.28118"
   version="1.1"
   id="svg2"
   inkscape:version="0.48.2 r9819"
   sodipodi:docname="AJAX1.svg">
  <metadata
     id="metadata62">
    <rdf:RDF>
      <cc:Work
         rdf:about="">
        <dc:format>image/svg+xml</dc:format>
        <dc:type
           rdf:resource="http://purl.org/dc/dcmitype/StillImage" />
        <dc:title />
      </cc:Work>
    </rdf:RDF>
  </metadata>
  <defs
     id="defs60" />
  <sodipodi:namedview
     pagecolor="#ffffff"
     bordercolor="#666666"
     borderopacity="1"
     objecttolerance="10"
     gridtolerance="10"
     guidetolerance="10"
     inkscape:pageopacity="0"
     inkscape:pageshadow="2"
     inkscape:window-width="1280"
     inkscape:window-height="1004"
     id="namedview58"
     showgrid="false"
     fit-margin-top="0"
     fit-margin-left="0"
     fit-margin-right="0"
     fit-margin-bottom="0"
     inkscape:zoom="1.4142136"
     inkscape:cx="340.05495"
     inkscape:cy="77.976752"
     inkscape:window-x="-8"
     inkscape:window-y="-8"
     inkscape:window-maximized="1"
     inkscape:current-layer="svg2" />
  <!-- draw the bicycle -->
  <!-- RIGHT -->
  <!-- LANE -->
  <!-- ONLY -->
  <path
     inkscape:connector-curvature="0"
     d="m 44.45399,579.60012 491.40331,0 c 23.9597,0 43.0357,-22.2298 43.0357,-43.00037 l 0,-491.909364 c 0,-23.453666 -19.076,-43.0003575 -43.0357,-43.0003575 l -491.40331,0 C 21.24158,1.6900285 1.689,21.23672 1.689,44.690386 l 0,491.909364 c 0,20.77057 19.55258,43.00037 42.76499,43.00037 z"
     style="fill:#ffffff;fill-opacity:1;fill-rule:evenodd;stroke:#000000;stroke-width:3.38666725;stroke-miterlimit:3.30649996;stroke-opacity:1;stroke-dasharray:none"
     id="path5484" />
  <path
     inkscape:connector-curvature="0"
     d="m 420.0599,241.63418 c 0,-73.03824 -57.422,-130.73099 -129.03636,-130.73099 -70.86117,0 -129.98372,57.69275 -129.98372,130.73099 l 0,233.36579 75.75078,0 0,-233.36579 c -0.98263,-31.25588 25.38362,-56.91605 55.45681,-56.91605 31.76778,0 57.66329,25.66017 57.66329,56.91605 l 0,122.9288 35.4277,37.87539 34.7215,-37.87539 0,-122.9288"
     style="fill:#000000;fill-opacity:1;fill-rule:evenodd;stroke:none"
     id="path5488" />
  <path
     inkscape:connector-curvature="0"
     d="m 290.0409,5.1145125 c 158.5977,0 286.1395,129.2717775 286.1395,285.1569275 0,160.05689 -127.5418,286.41021 -286.1395,286.41021 C 132.66711,576.68165 4.13674,450.32833 4.13674,290.27144 4.13674,134.38629 132.66711,5.1145125 290.0409,5.1145125 z M 138.29812,471.84029 c 41.78236,34.21556 94.55606,54.47421 151.74278,54.47421 130.9722,0 238.2496,-105.78868 238.2496,-237.26695 0,-55.96284 -19.3114,-109.72505 -52.5325,-149.77165 L 138.29812,471.84029 z M 431.7691,97.970117 101.41125,429.55189 C 75.75105,399.24922 54.46859,334.25442 54.46859,289.04755 c 0,-130.97223 105.82396,-237.031575 235.57231,-237.031575 44.4949,0 104.3647,18.564075 141.7282,45.954142"
     style="fill:#c0111e;fill-opacity:1;fill-rule:evenodd;stroke:none"
     id="path5492" />
</svg>
