<?xml version="1.0" encoding="iso-8859-1"?>
<!-- Generator: Adobe Illustrator 15.0.2, SVG Export Plug-In . SVG Version: 6.00 Build 0)  -->
<!DOCTYPE svg PUBLIC "-//W3C//DTD SVG 1.1//EN" "http://www.w3.org/Graphics/SVG/1.1/DTD/svg11.dtd">
<svg version="1.1" xmlns="http://www.w3.org/2000/svg" xmlns:xlink="http://www.w3.org/1999/xlink" x="0px" y="0px"
	 width="599.537px" height="601px" viewBox="0 0 599.537 601" style="enable-background:new 0 0 599.537 601;" xml:space="preserve"
	>
<style type="text/css">
<![CDATA[
	.st0{fill:none;stroke:#FFFFFF;stroke-width:6;stroke-miterlimit:10;stroke-dasharray:36;}
	.st1{fill:none;stroke:#ED1C24;stroke-width:3;stroke-miterlimit:10;}
	.st2{opacity:0.88;}
	.st3{fill:#1C75BC;}
	.st4{fill:#ED1C24;}
	.st5{fill:none;stroke:#000000;stroke-width:1.5;stroke-miterlimit:10;}
	.st6{fill:none;stroke:#FFFFFF;stroke-width:6;stroke-miterlimit:10;}
	.st7{fill:#1C75BC;stroke:#1C75BC;stroke-width:1.0843;stroke-miterlimit:10;}
	.st8{fill:#ED1C24;stroke:#000000;stroke-width:1.5;stroke-miterlimit:10;}
	.st9{fill:#C2B59B;}
	.st10{fill:none;stroke:#1C75BC;stroke-width:3;stroke-miterlimit:10;}
	.st11{fill:#FFF200;}
	.st12{fill:#F1F2F2;stroke:#C2B59B;stroke-width:0.9624;stroke-miterlimit:10;}
	.st13{fill:#BCBEC0;stroke:#999999;stroke-width:3;stroke-miterlimit:10;}
	.st14{fill:#009966;}
	.st15{fill:#F1F2F2;stroke:#C2B59B;stroke-width:0.914;stroke-miterlimit:10;}
]]>
</style>
<g id="Template_Intersection">
	<g id="Base">
		<rect x="-5.955" y="-5.122" class="st13" width="610.623" height="610.623"/>
	</g>
	<g id="Grass">
		<rect x="-5.955" y="-5.122" class="st14" width="611.854" height="216.812"/>
		<rect x="-5.955" y="390.37" class="st14" width="611.854" height="216.812"/>
	</g>
	<g id="Dashed_Lines">
		<line class="st0" x1="604.668" y1="306.189" x2="-16.394" y2="306.189"/>
		<line class="st6" x1="604.668" y1="294.189" x2="-16.394" y2="294.189"/>
	</g>
</g>
<g id="Double_White_Line">
	<g id="Cars">
		<g>
			<g class="st2">
				<g>
					<polygon class="st11" points="34.598,278.432 18.421,277 22.637,277.964 18.396,273.234 27.859,287.261 26.749,293.756 
						22.724,292.548 17.443,298.787 15.247,291.591 7.981,293.65 6.144,288.293 13.5,280.87 21.803,278.432 10.502,275.135 
						16.443,274.953 18.444,274.415 15.97,266.608 22.172,277.007 22.724,286.748 24.685,271.371 29.113,267.281 32.61,268.413 
						44.739,265.205 33.592,275.524 					"/>
				</g>
				<g>
					<polygon class="st11" points="25.172,265.528 24.061,276.188 19.708,282.779 31.599,272.38 42.568,271.171 46.422,276.482 
						42.437,282.147 25.446,279.477 33.916,288.164 24.995,281.325 24.746,283.863 22.531,274.712 21.93,282.107 20.449,282.756 
						12.6,290.425 5.923,290.293 3.682,285.385 0.105,280.286 17.952,277.642 9.862,272.229 6.14,263.756 13.92,265.324 
						15.876,258.299 21.284,258.353 					"/>
				</g>
				<g>
					<polygon class="st11" points="26.522,269.496 22.042,280.02 41.725,263.329 28.428,276.193 23.652,278.412 32.689,279.652 
						31.205,281.781 31.288,284.868 26.037,282.367 28.105,291.505 22.976,279.736 19.673,301.871 15.678,295.638 13.666,290.371 
						7.872,290.127 9.615,283.977 11.871,279.916 2.755,275.881 4.569,270.92 23.583,279.601 10.589,262.296 22.416,278.373 
						23.069,281.934 22.765,278.853 					"/>
				</g>
				<g>
					<polygon class="st11" points="22.862,272.217 24.031,272.928 22.17,278.731 12.445,288.296 11.198,284.738 19.324,279.119 
						23.761,278.482 10.065,274.637 3.095,265.929 6.294,260.43 25.923,285.43 20.166,267.705 23.354,255.097 20.508,287.189 
						20.02,283.789 38.703,262.791 38.415,269.706 22.398,278.695 41.691,278.953 36.754,282.662 31.775,283.966 39.95,297.333 
						32.913,297.866 26.64,295.273 					"/>
				</g>
				<g>
					<polygon class="st11" points="30.913,286.443 26.733,285.053 24.517,284.717 22.724,270.813 17.925,296.581 16.996,288.179 
						16.561,284.324 15.755,282.268 4.968,283.233 1.396,278.431 9.752,274.974 8.218,270.01 16.929,272.925 16.25,267.325 
						22.295,277.527 22.725,279.68 24.443,272.443 21.632,281.096 24.443,277.193 42.598,266.747 26.501,277.566 43.521,278.432 
						27.321,279.528 41.36,289.366 					"/>
				</g>
			</g>
			<g>
				<g class="st2">
					<g>
						<polygon class="st11" points="169.068,280.828 168.321,285.598 144.807,276.604 149.045,278.217 157.857,292.921 
							152.852,287.629 150.957,300.254 150.433,282.141 154.823,273.008 135.815,296.469 132.037,292.132 133.453,285.634 
							140.813,280.828 129.927,275.009 144.664,277.341 133.877,263.108 142.327,265.535 147.76,268.819 150.957,276.138 
							153.01,273.392 162.924,259.359 167.184,264.021 154.208,279.227 152.615,280.558 						"/>
					</g>
					<g>
						<polygon class="st11" points="151.164,280.444 150.749,282.011 160.803,269.181 163.214,272.296 163.645,276.289 
							175.587,278.805 143.237,279.169 144.625,277.267 163.989,292.246 163.854,300.346 152.747,285.563 151.749,291.511 
							150.755,281.173 148.194,286.235 143.532,289.464 151.026,280.324 130.477,288.327 136.853,281.965 150.941,280.97 
							157.846,284.675 149.259,279.807 146.949,275.22 146.871,269.115 149.868,265.836 						"/>
					</g>
					<g>
						<polygon class="st11" points="157.577,264.718 146.453,287.719 163.086,271.363 163.227,275.658 174.177,277.514 
							165.06,282.6 156.893,283.083 146.394,276.669 156.964,288.492 148.244,273.138 151.203,282.114 149.914,288.345 
							150.958,280.092 138.829,297.029 136.014,292.604 150.474,280.732 150.967,280.707 132.055,278.425 156.737,283.614 
							133.289,267.043 155.814,288.189 142.628,260.201 150.109,274.701 152.438,269.835 						"/>
					</g>
					<g>
						<polygon class="st11" points="150.535,296.056 149.412,285.608 153.309,276.091 135.295,296.143 150.268,280.836 
							134.507,284.851 139.512,280.522 127.729,273.673 154.409,283.536 154.791,285.747 147.727,275.136 149.607,275.553 
							151.057,277.743 149.863,285.56 151.185,281.094 161.84,270.348 163.704,273.813 155.542,279.839 157.027,280.982 
							171.328,287.073 154.917,283.01 150.166,279.355 155.379,288.879 151.845,284.034 						"/>
					</g>
					<g>
						<polygon class="st11" points="162.48,292.333 147.095,273.125 153.676,290.777 150.956,296.885 149.275,286.669 
							153.477,275.559 143.986,287.565 149.698,281.192 157.744,278.721 131.062,280.829 145.388,279.458 156.416,284.556 
							147,277.248 146.345,273.114 148.2,270.74 150.956,283.729 156.616,259.278 149.46,284.222 152.834,279.424 170.92,269.095 
							149.677,281.387 148.487,280.83 162.528,283.891 156.72,283.933 						"/>
					</g>
				</g>
			</g>
		</g>
		<g>
			<g>
				<path class="st8" d="M12,254.393c0,15.902,5.711,22.929,27.082,23.298c22.866,0.397,82.381,4.157,98.18,0
					c7.774-2.045,17.855,0.088,17.855-26.625c0-26.716-10.081-24.582-17.855-26.628c-15.798-4.156-75.313-0.396-98.18,0
					C17.711,224.809,12,231.835,12,247.738V254.393z"/>
			</g>
			<g>
				<path class="st9" d="M98.928,267.805c0,0,2.128-6.568,2.128-16.739s-2.128-16.737-2.128-16.737s16.529-6.683,28.225-8.659
					c1.822-0.309,3.195,15.226,3.195,25.396s-1.062,25.594-3.195,25.397C115.458,275.381,98.928,267.805,98.928,267.805z"/>
				<path class="st9" d="M59.505,229.134c0,0-2.13,11.76-2.13,21.927c0,10.17,2.13,21.933,2.13,21.933s-16.696-1.711-28.244-0.004
					c-1.8,0.265-3.938-11.443-3.938-20.222c0-8.782,1.831-23.801,3.938-23.631C42.809,230.072,59.505,229.134,59.505,229.134z"/>
				<g>
					<path class="st9" d="M119.115,224.198c-31.982-0.163-85.948,0.926-68.786,2.13c19.053,1.337,26.361,4.664,26.361,4.664
						l20.871,1.222C103.405,228.852,124.777,224.227,119.115,224.198z"/>
					<path class="st9" d="M119.115,277.933c-31.982,0.164-85.948-0.926-68.786-2.13c19.053-1.337,26.361-4.663,26.361-4.663
						l20.871-1.222C103.405,273.28,124.777,277.903,119.115,277.933z"/>
				</g>
			</g>
			<g>
				<path class="st15" d="M149.774,233.012c0-2.928-7.62-7.31-10.156-5.845c-1.264,0.732,3.089,4.257,3.809,5.845
					C144.557,235.511,149.774,233.012,149.774,233.012z"/>
				<path class="st15" d="M149.774,269.117c0,2.93-7.62,7.311-10.156,5.845c-1.264-0.731,3.089-4.255,3.809-5.845
					C144.557,266.62,149.774,269.117,149.774,269.117z"/>
			</g>
		</g>
		<g>
			<path class="st7" d="M238.84,256.09c0,0-0.467,15.573,9.886,21.596c5.839,3.397,81.895,3.826,110.503,1.085
				c14.114-1.354,14.744-22.967,14.744-22.967v-6.491c0,0-0.63-21.614-14.744-22.967c-28.608-2.741-104.665-2.312-110.503,1.085
				c-10.354,6.023-9.886,21.596-9.886,21.596V256.09z"/>
			<path class="st9" d="M312.516,255.447c0,9.504-1.516,10.964-1.516,18.798c0,0,20.502,5.902,22.613,3.009
				c3.623-4.964,5.445-17.208,5.445-23.251v-2.887c0-6.045-1.822-18.289-5.445-23.251c-2.111-2.893-22.613,3.007-22.613,3.007
				c0,7.835,1.516,9.296,1.516,18.8V255.447z"/>
			<path class="st9" d="M260.676,250.068c0-8.373,0.916-9.661,0.916-16.563c0,0-11.982-3.889-13.629-1.566
				c-5.451,7.685-6.535,14.077-6.535,19.402v2.543c0,5.326,1.084,11.717,6.535,19.402c1.648,2.323,13.629-1.566,13.629-1.566
				c0-6.904-0.916-8.19-0.916-16.563V250.068z"/>
			<g>
				<path class="st9" d="M254.631,228.022l10.208,3.034l37.324-0.36c0,0,18.916-4.477,15.743-4.477
					C286.449,226.219,254.631,228.022,254.631,228.022z"/>
				<path class="st9" d="M254.631,277.096l10.208-3.034l37.324,0.36c0,0,18.916,4.477,15.743,4.477
					C286.449,278.899,254.631,277.096,254.631,277.096z"/>
			</g>
			<g>
				<path class="st12" d="M366.749,235.08c-0.606-0.895-5.805-3.901-5.477-5.801c0.458-2.651,8.291,4.122,8.007,6.892
					C369.057,238.335,368.055,237.014,366.749,235.08z"/>
				<path class="st12" d="M366.749,270.039c-0.606,0.895-5.805,3.901-5.477,5.801c0.458,2.651,8.291-4.122,8.007-6.892
					C369.057,266.784,368.055,268.105,366.749,270.039z"/>
			</g>
			<path class="st5" d="M238.84,256.09c0,0-0.467,15.573,9.886,21.596c5.839,3.397,81.895,3.826,110.503,1.085
				c14.114-1.354,14.744-22.967,14.744-22.967v-6.491c0,0-0.63-21.614-14.744-22.967c-28.608-2.741-104.665-2.312-110.503,1.085
				c-10.354,6.023-9.886,21.596-9.886,21.596V256.09z"/>
		</g>
		<g>
			<path d="M278.037,240.997c1.368-0.324,3.563-0.54,5.724-0.54c3.132,0,5.147,0.54,6.623,1.764c1.26,0.936,2.052,2.376,2.052,4.284
				c0,2.375-1.584,4.427-4.104,5.327v0.108c2.304,0.54,5.004,2.448,5.004,6.047c0,2.088-0.828,3.708-2.088,4.859
				c-1.656,1.548-4.392,2.268-8.352,2.268c-2.159,0-3.815-0.144-4.859-0.288V240.997z M281.169,250.932h2.844
				c3.275,0,5.22-1.764,5.22-4.104c0-2.808-2.124-3.959-5.292-3.959c-1.439,0-2.268,0.108-2.771,0.216V250.932z M281.169,262.522
				c0.648,0.108,1.512,0.144,2.628,0.144c3.239,0,6.227-1.188,6.227-4.715c0-3.275-2.843-4.679-6.263-4.679h-2.592V262.522z"/>
		</g>
		<g>
			<path d="M77.3,256.636l-2.52,7.631h-3.24l8.279-24.261h3.744l8.278,24.261h-3.348l-2.592-7.631H77.3z M85.291,254.188
				l-2.412-6.983c-0.54-1.583-0.899-3.023-1.26-4.427h-0.072c-0.359,1.404-0.72,2.916-1.224,4.392l-2.376,7.019H85.291z"/>
		</g>
		<g>
			<g>
				<path class="st1" d="M167.537,259c26.979,1,46.952,46,83.973,70c25.824,16.742,42.627,19.998,87.547,20
					c51.48,0.002,99.992-13.749,119.63-24.671c10.563-5.875,14.512-7.052,44.85-32.729c27.268-23.078,50.774-32.597,66.616-36.474"
					/>
				<g>
					<polygon class="st4" points="567.881,270.854 591.526,252.532 563.835,241.213 					"/>
				</g>
			</g>
		</g>
		<g>
			<g>
				<line class="st10" x1="385.187" y1="252.613" x2="437.159" y2="252.613"/>
				<g>
					<polygon class="st3" points="432.782,267.487 458.688,252.531 432.782,237.572 					"/>
				</g>
			</g>
		</g>
	</g>
</g>
</svg>
