<?xml version="1.0" encoding="iso-8859-1"?>
<!-- Generator: Adobe Illustrator 15.0.2, SVG Export Plug-In . SVG Version: 6.00 Build 0)  -->
<!DOCTYPE svg PUBLIC "-//W3C//DTD SVG 1.1//EN" "http://www.w3.org/Graphics/SVG/1.1/DTD/svg11.dtd">
<svg version="1.1" id="Layer_1" xmlns="http://www.w3.org/2000/svg" xmlns:xlink="http://www.w3.org/1999/xlink" x="0px" y="0px"
	 width="607.777px" height="607.777px" viewBox="0 0 607.777 607.777" style="enable-background:new 0 0 607.777 607.777;"
	 xml:space="preserve">
<style type="text/css">
<![CDATA[
	.st0{fill:none;stroke:#FFFFFF;stroke-width:6;stroke-miterlimit:10;stroke-dasharray:36;}
	.st1{fill:none;stroke:#ED1C24;stroke-width:3;stroke-miterlimit:10;}
	.st2{opacity:0.88;}
	.st3{fill:#1C75BC;}
	.st4{fill:#ED1C24;}
	.st5{fill:none;stroke:#000000;stroke-width:1.5;stroke-miterlimit:10;}
	.st6{fill:#1C75BC;stroke:#1C75BC;stroke-width:1.0843;stroke-miterlimit:10;}
	.st7{fill:#ED1C24;stroke:#000000;stroke-width:1.5;stroke-miterlimit:10;}
	.st8{fill:#C2B59B;}
	.st9{fill:none;stroke:#1C75BC;stroke-width:3;stroke-miterlimit:10;}
	.st10{fill:#FFF200;}
	.st11{fill:#F1F2F2;stroke:#C2B59B;stroke-width:0.9624;stroke-miterlimit:10;}
	.st12{fill:#BCBEC0;stroke:#999999;stroke-width:3;stroke-miterlimit:10;}
	.st13{fill:#009966;}
	.st14{fill:#F1F2F2;stroke:#C2B59B;stroke-width:0.914;stroke-miterlimit:10;}
]]>
</style>
<rect class="st12" width="610.623" height="610.623"/>
<g>
	<g>
		<g>
			<path class="st13" d="M395.492,162.979c0,28.803,23.348,52.153,52.152,52.153h162.979V0H395.492V162.979z"/>
		</g>
	</g>
	<g>
		<g>
			<path class="st13" d="M0,0v215.131h162.979c28.803,0,52.153-23.348,52.153-52.153V0H0z"/>
		</g>
	</g>
	<g>
		<g>
			<path class="st13" d="M162.979,395.492H0v215.131h215.131V447.645C215.131,418.841,191.783,395.492,162.979,395.492z"/>
		</g>
	</g>
	<g>
		<g>
			<path class="st13" d="M610.623,610.623V395.492H447.644c-28.803,0-52.152,23.348-52.152,52.153v162.978H610.623z"/>
		</g>
	</g>
</g>
<line class="st0" x1="305.312" y1="215.13" x2="305.312" y2="-10.44"/>
<line class="st0" x1="215.131" y1="305.312" x2="-10.438" y2="305.312"/>
<line class="st0" x1="305.312" y1="395.492" x2="305.312" y2="621.062"/>
<line class="st0" x1="395.492" y1="305.312" x2="621.062" y2="305.312"/>
<g>
	<g class="st2">
		<g>
			<polygon class="st10" points="60.254,292.786 44.078,291.354 48.294,292.318 44.053,287.588 53.516,301.615 52.406,308.11 
				48.381,306.902 43.1,313.141 40.903,305.945 33.638,308.004 31.8,302.647 39.156,295.224 47.459,292.786 36.159,289.489 
				42.1,289.307 44.101,288.769 41.627,280.962 47.829,291.361 48.381,301.102 50.341,285.725 54.77,281.635 58.267,282.767 
				70.396,279.559 59.249,289.878 			"/>
		</g>
		<g>
			<polygon class="st10" points="50.829,279.882 49.717,290.542 45.365,297.133 57.255,286.734 68.225,285.525 72.079,290.836 
				68.094,296.501 51.103,293.831 59.573,302.518 50.651,295.679 50.402,298.217 48.188,289.066 47.586,296.461 46.106,297.11 
				38.256,304.779 31.58,304.647 29.338,299.739 25.762,294.64 43.608,291.996 35.519,286.583 31.796,278.11 39.577,279.678 
				41.533,272.653 46.94,272.707 			"/>
		</g>
		<g>
			<polygon class="st10" points="52.179,283.85 47.698,294.374 67.381,277.683 54.085,290.547 49.309,292.766 58.346,294.006 
				56.862,296.135 56.945,299.222 51.693,296.721 53.762,305.859 48.632,294.09 45.33,316.225 41.334,309.992 39.323,304.725 
				33.528,304.481 35.271,298.331 37.527,294.27 28.412,290.235 30.226,285.274 49.24,293.955 36.246,276.65 48.073,292.727 
				48.726,296.288 48.421,293.207 			"/>
		</g>
		<g>
			<polygon class="st10" points="48.519,286.571 49.688,287.282 47.827,293.085 38.102,302.65 36.854,299.092 44.98,293.473 
				49.418,292.836 35.722,288.991 28.752,280.283 31.951,274.784 51.58,299.784 45.823,282.059 49.011,269.451 46.165,301.543 
				45.676,298.143 64.36,277.145 64.072,284.06 48.055,293.049 67.348,293.307 62.411,297.016 57.432,298.32 65.606,311.687 
				58.569,312.22 52.297,309.627 			"/>
		</g>
		<g>
			<polygon class="st10" points="56.57,300.797 52.39,299.407 50.173,299.071 48.38,285.167 43.582,310.935 42.652,302.533 
				42.217,298.678 41.412,296.622 30.625,297.587 27.052,292.785 35.409,289.328 33.875,284.364 42.585,287.279 41.907,281.679 
				47.952,291.881 48.381,294.034 50.1,286.797 47.289,295.45 50.1,291.547 68.254,281.101 52.158,291.92 69.178,292.786 
				52.978,293.882 67.017,303.72 			"/>
		</g>
	</g>
	<g>
		<g class="st2">
			<g>
				<polygon class="st10" points="194.725,295.182 193.978,299.952 170.463,290.958 174.702,292.571 183.514,307.275 
					178.508,301.983 176.613,314.608 176.089,296.495 180.48,287.362 161.472,310.823 157.694,306.486 159.11,299.988 
					166.47,295.182 155.584,289.363 170.32,291.695 159.534,277.462 167.984,279.889 173.417,283.173 176.613,290.492 
					178.667,287.746 188.581,273.713 192.841,278.375 179.864,293.581 178.272,294.912 				"/>
			</g>
			<g>
				<polygon class="st10" points="176.82,294.798 176.406,296.365 186.46,283.535 188.871,286.65 189.302,290.643 201.244,293.159 
					168.894,293.523 170.282,291.621 189.646,306.6 189.511,314.7 178.404,299.917 177.406,305.865 176.412,295.527 
					173.851,300.589 169.188,303.818 176.683,294.678 156.133,302.681 162.51,296.319 176.598,295.324 183.502,299.029 
					174.916,294.161 172.606,289.574 172.527,283.469 175.525,280.19 				"/>
			</g>
			<g>
				<polygon class="st10" points="183.234,279.072 172.11,302.073 188.743,285.717 188.884,290.012 199.833,291.868 
					190.716,296.954 182.549,297.437 172.05,291.023 182.621,302.846 173.901,287.492 176.86,296.468 175.571,302.699 
					176.615,294.446 164.485,311.383 161.671,306.958 176.13,295.086 176.624,295.061 157.711,292.779 182.394,297.968 
					158.946,281.397 181.471,302.543 168.285,274.555 175.766,289.055 178.094,284.189 				"/>
			</g>
			<g>
				<polygon class="st10" points="176.192,310.41 175.068,299.962 178.965,290.445 160.952,310.497 175.924,295.19 160.164,299.205 
					165.169,294.876 153.386,288.027 180.065,297.89 180.448,300.101 173.383,289.49 175.264,289.907 176.713,292.097 
					175.52,299.914 176.842,295.448 187.497,284.702 189.361,288.167 181.199,294.193 182.684,295.336 196.985,301.427 
					180.573,297.364 175.822,293.709 181.036,303.233 177.501,298.388 				"/>
			</g>
			<g>
				<polygon class="st10" points="188.137,306.687 172.751,287.479 179.333,305.131 176.612,311.239 174.932,301.023 
					179.134,289.913 169.643,301.919 175.355,295.546 183.401,293.075 156.719,295.183 171.045,293.813 182.072,298.91 
					172.656,291.602 172.001,287.468 173.856,285.094 176.613,298.083 182.272,273.632 175.117,298.576 178.491,293.778 
					196.577,283.449 175.333,295.741 174.144,295.184 188.185,298.245 182.377,298.287 				"/>
			</g>
		</g>
	</g>
</g>
<g>
	<g class="st2">
		<g>
			<polygon class="st10" points="421.441,325.359 405.264,323.927 409.48,324.892 405.239,320.161 414.703,334.188 413.591,340.684 
				409.567,339.475 404.286,345.714 402.089,338.519 394.824,340.577 392.986,335.221 400.342,327.797 408.646,325.359 
				397.345,322.063 403.286,321.88 405.287,321.342 402.813,313.536 409.015,323.935 409.567,333.675 411.527,318.298 
				415.957,314.208 419.453,315.34 431.582,312.132 420.435,322.451 			"/>
		</g>
		<g>
			<polygon class="st10" points="412.015,312.455 410.903,323.115 406.551,329.706 418.441,319.308 429.412,318.099 
				433.265,323.409 429.281,329.074 412.289,326.404 420.759,335.091 411.837,328.252 411.588,330.791 409.374,321.64 
				408.772,329.034 407.292,329.684 399.442,337.352 392.766,337.221 390.524,332.312 386.948,327.213 404.794,324.569 
				396.705,319.157 392.982,310.683 400.763,312.251 402.719,305.226 408.126,305.28 			"/>
		</g>
		<g>
			<polygon class="st10" points="413.365,316.423 408.884,326.947 428.568,310.256 415.271,323.121 410.495,325.339 419.533,326.58 
				418.048,328.708 418.13,331.795 412.879,329.294 414.948,338.432 409.818,326.663 406.516,348.798 402.521,342.565 
				400.509,337.298 394.714,337.054 396.458,330.904 398.713,326.843 389.598,322.809 391.412,317.847 410.426,326.528 
				397.432,309.223 409.259,325.3 409.912,328.861 409.607,325.78 			"/>
		</g>
		<g>
			<polygon class="st10" points="409.705,319.144 410.874,319.855 409.013,325.659 399.288,335.223 398.041,331.666 
				406.167,326.046 410.604,325.41 396.908,321.564 389.938,312.856 393.137,307.357 412.765,332.357 407.009,314.632 
				410.197,302.024 407.351,334.116 406.862,330.716 425.546,309.718 425.257,316.633 409.241,325.623 428.535,325.88 
				423.597,329.589 418.619,330.893 426.792,344.26 419.755,344.793 413.483,342.201 			"/>
		</g>
		<g>
			<polygon class="st10" points="417.755,333.371 413.576,331.98 411.359,331.645 409.566,317.741 404.768,343.508 403.838,335.106 
				403.403,331.251 402.598,329.195 391.811,330.161 388.238,325.358 396.595,321.901 395.061,316.937 403.771,319.852 
				403.093,314.252 409.138,324.455 409.567,326.607 411.286,319.371 408.475,328.023 411.286,324.12 429.441,313.674 
				413.343,324.493 430.365,325.359 414.164,326.456 428.203,336.293 			"/>
		</g>
	</g>
	<g>
		<g class="st2">
			<g>
				<polygon class="st10" points="555.912,327.755 555.164,332.525 531.65,323.531 535.888,325.144 544.701,339.849 
					539.695,334.557 537.8,347.182 537.275,329.068 541.666,319.935 522.658,343.396 518.88,339.06 520.296,332.561 
					527.656,327.755 516.771,321.937 531.507,324.268 520.72,310.036 529.169,312.462 534.603,315.746 537.8,323.065 
					539.853,320.319 549.767,306.286 554.027,310.948 541.05,326.154 539.458,327.485 				"/>
			</g>
			<g>
				<polygon class="st10" points="538.007,327.372 537.591,328.938 547.646,316.108 550.058,319.223 550.488,323.216 
					562.431,325.732 530.08,326.096 531.468,324.194 550.832,339.173 550.697,347.273 539.589,332.49 538.591,338.438 
					537.599,328.1 535.037,333.162 530.375,336.392 537.869,327.251 517.32,335.254 523.697,328.893 537.785,327.897 
					544.689,331.602 536.101,326.734 533.792,322.147 533.714,316.042 536.71,312.763 				"/>
			</g>
			<g>
				<polygon class="st10" points="544.419,311.646 533.296,334.646 549.929,318.29 550.07,322.585 561.019,324.441 551.902,329.527 
					543.736,330.01 533.236,323.597 543.806,335.419 535.087,320.065 538.046,329.041 536.757,335.272 537.802,327.019 
					525.671,343.957 522.857,339.531 537.316,327.66 537.81,327.634 518.898,325.352 543.58,330.541 520.132,313.97 
					542.658,335.117 529.47,307.128 536.953,321.628 539.281,316.763 				"/>
			</g>
			<g>
				<polygon class="st10" points="537.378,342.983 536.255,332.535 540.152,323.018 522.138,343.07 537.111,327.763 
					521.351,331.778 526.355,327.449 514.572,320.601 541.251,330.463 541.634,332.674 534.57,322.063 536.451,322.48 537.9,324.67 
					536.707,332.487 538.029,328.021 548.683,317.275 550.546,320.741 542.384,326.766 543.871,327.909 558.171,334 
					541.759,329.937 537.009,326.282 542.222,335.807 538.687,330.961 				"/>
			</g>
			<g>
				<polygon class="st10" points="549.324,339.26 533.937,320.053 540.519,337.704 537.798,343.812 536.119,333.597 540.32,322.486 
					530.83,334.492 536.541,328.12 544.587,325.648 517.906,327.756 532.232,326.386 543.259,331.483 533.843,324.175 
					533.187,320.042 535.042,317.667 537.798,330.656 543.458,306.206 536.302,331.149 539.677,326.352 557.763,316.022 
					536.519,328.314 535.33,327.757 549.371,330.818 543.564,330.86 				"/>
			</g>
		</g>
	</g>
</g>
<g>
	<g>
		<path class="st7" d="M37.117,272.165c0,15.902,5.711,22.929,27.082,23.298c22.866,0.397,82.381,4.157,98.18,0
			c7.774-2.045,17.855,0.088,17.855-26.625c0-26.716-10.081-24.582-17.855-26.628c-15.798-4.156-75.313-0.396-98.18,0
			c-21.371,0.371-27.082,7.397-27.082,23.3V272.165z"/>
	</g>
	<g>
		<path class="st8" d="M124.045,285.577c0,0,2.128-6.568,2.128-16.739s-2.128-16.737-2.128-16.737s16.529-6.683,28.225-8.659
			c1.822-0.309,3.195,15.226,3.195,25.396s-1.062,25.594-3.195,25.397C140.575,293.153,124.045,285.577,124.045,285.577z"/>
		<path class="st8" d="M84.622,246.906c0,0-2.13,11.76-2.13,21.927c0,10.17,2.13,21.933,2.13,21.933s-16.696-1.711-28.244-0.004
			c-1.8,0.265-3.938-11.443-3.938-20.222c0-8.782,1.831-23.801,3.938-23.631C67.926,247.844,84.622,246.906,84.622,246.906z"/>
		<g>
			<path class="st8" d="M144.232,241.97c-31.982-0.163-85.948,0.926-68.786,2.13c19.053,1.337,26.361,4.664,26.361,4.664
				l20.871,1.222C128.522,246.624,149.894,241.999,144.232,241.97z"/>
			<path class="st8" d="M144.232,295.705c-31.982,0.164-85.948-0.926-68.786-2.13c19.053-1.337,26.361-4.663,26.361-4.663
				l20.871-1.222C128.522,291.052,149.894,295.675,144.232,295.705z"/>
		</g>
	</g>
	<g>
		<path class="st14" d="M174.892,250.784c0-2.928-7.62-7.31-10.156-5.845c-1.264,0.732,3.089,4.257,3.809,5.845
			C169.674,253.283,174.892,250.784,174.892,250.784z"/>
		<path class="st14" d="M174.892,286.889c0,2.93-7.62,7.311-10.156,5.845c-1.264-0.731,3.089-4.255,3.809-5.845
			C169.674,284.392,174.892,286.889,174.892,286.889z"/>
	</g>
</g>
<g>
	<path class="st6" d="M541.25,346.306c0,0,0.467-15.573-9.887-21.596c-5.84-3.397-81.895-3.826-110.504-1.085
		c-14.114,1.354-14.744,22.967-14.744,22.967v6.491c0,0,0.63,21.614,14.744,22.967c28.609,2.741,104.664,2.312,110.504-1.085
		c10.354-6.023,9.887-21.596,9.887-21.596V346.306z"/>
	<path class="st8" d="M467.574,346.949c0-9.504,1.516-10.964,1.516-18.798c0,0-20.502-5.902-22.613-3.009
		c-3.623,4.964-5.445,17.208-5.445,23.251v2.887c0,6.045,1.822,18.289,5.445,23.251c2.111,2.893,22.613-3.007,22.613-3.007
		c0-7.835-1.516-9.296-1.516-18.8V346.949z"/>
	<path class="st8" d="M519.412,352.328c0,8.373-0.914,9.661-0.914,16.563c0,0,11.982,3.889,13.629,1.566
		c5.449-7.685,6.533-14.077,6.533-19.402v-2.543c0-5.326-1.084-11.717-6.533-19.402c-1.648-2.323-13.629,1.566-13.629,1.566
		c0,6.904,0.914,8.19,0.914,16.563V352.328z"/>
	<g>
		<path class="st8" d="M525.458,374.374l-10.209-3.034l-37.324,0.36c0,0-18.916,4.477-15.742,4.477
			C493.64,376.177,525.458,374.374,525.458,374.374z"/>
		<path class="st8" d="M525.458,325.3l-10.209,3.034l-37.324-0.36c0,0-18.916-4.477-15.742-4.477
			C493.64,323.497,525.458,325.3,525.458,325.3z"/>
	</g>
	<g>
		<path class="st11" d="M413.339,367.316c0.607,0.895,5.807,3.901,5.479,5.801c-0.459,2.651-8.292-4.122-8.008-6.892
			C411.031,364.062,412.033,365.383,413.339,367.316z"/>
		<path class="st11" d="M413.339,332.358c0.607-0.895,5.807-3.901,5.479-5.801c-0.459-2.651-8.292,4.122-8.008,6.892
			C411.031,335.613,412.033,334.292,413.339,332.358z"/>
	</g>
	<path class="st5" d="M541.25,346.306c0,0,0.467-15.573-9.887-21.596c-5.84-3.397-81.895-3.826-110.504-1.085
		c-14.114,1.354-14.744,22.967-14.744,22.967v6.491c0,0,0.63,21.614,14.744,22.967c28.609,2.741,104.664,2.312,110.504-1.085
		c10.354-6.023,9.887-21.596,9.887-21.596V346.306z"/>
</g>
<g>
	<path d="M487.134,337.936c1.369-0.324,3.564-0.54,5.725-0.54c3.131,0,5.146,0.54,6.623,1.764c1.26,0.936,2.051,2.376,2.051,4.284
		c0,2.375-1.584,4.427-4.104,5.327v0.108c2.305,0.54,5.004,2.448,5.004,6.047c0,2.088-0.828,3.708-2.088,4.859
		c-1.656,1.548-4.391,2.268-8.352,2.268c-2.158,0-3.814-0.144-4.859-0.288V337.936z M490.267,347.87h2.844
		c3.275,0,5.219-1.764,5.219-4.104c0-2.808-2.123-3.959-5.291-3.959c-1.439,0-2.268,0.108-2.771,0.216V347.87z M490.267,359.461
		c0.648,0.108,1.512,0.144,2.627,0.144c3.24,0,6.227-1.188,6.227-4.715c0-3.275-2.842-4.679-6.262-4.679h-2.592V359.461z"/>
</g>
<g>
	<path d="M101.533,272.688l-2.52,7.631h-3.24l8.279-24.261h3.744l8.278,24.261h-3.348l-2.592-7.631H101.533z M109.524,270.241
		l-2.412-6.983c-0.54-1.583-0.899-3.023-1.26-4.427h-0.072c-0.359,1.404-0.72,2.916-1.224,4.392l-2.376,7.019H109.524z"/>
</g>
<g>
	<g>
		<path class="st9" d="M400.953,351.825c-72.177-18.439-124.232-56.738-123.334-116.263c0.817-54.129,0.333-92.211-0.133-112.871"/>
		<g>
			<path class="st3" d="M276.953,104.596c3.369,8.44,9.019,18.875,14.89,25.286l-14.39-4.811l-14.134,5.508
				C268.87,123.889,274.003,113.19,276.953,104.596z"/>
		</g>
	</g>
</g>
<g>
	<g>
		<path class="st1" d="M187.729,268.837c78.686,18.439,135.435,56.738,134.457,116.263c-0.891,54.13-0.363,92.213,0.145,112.872"/>
		<g>
			<path class="st4" d="M322.912,516.066c-3.387-8.432-9.061-18.855-14.946-25.252l14.4,4.778l14.122-5.539
				C330.952,496.755,325.842,507.465,322.912,516.066z"/>
		</g>
	</g>
</g>
</svg>
