<?xml version="1.0" encoding="iso-8859-1"?>
<!-- Generator: Adobe Illustrator 15.0.2, SVG Export Plug-In . SVG Version: 6.00 Build 0)  -->
<!DOCTYPE svg PUBLIC "-//W3C//DTD SVG 1.1//EN" "http://www.w3.org/Graphics/SVG/1.1/DTD/svg11.dtd">
<svg version="1.1" id="Layer_1" xmlns="http://www.w3.org/2000/svg" xmlns:xlink="http://www.w3.org/1999/xlink" x="0px" y="0px"
	 width="607.777px" height="607.777px" viewBox="0 0 607.777 607.777" style="enable-background:new 0 0 607.777 607.777;"
	 xml:space="preserve">
<style type="text/css">
<![CDATA[
	.st0{fill:none;stroke:#FFFFFF;stroke-width:6;stroke-miterlimit:10;stroke-dasharray:36;}
	.st1{fill:none;stroke:#ED1C24;stroke-width:3;stroke-miterlimit:10;}
	.st2{fill:#1C75BC;}
	.st3{fill:#ED1C24;}
	.st4{fill:none;stroke:#000000;stroke-width:1.5;stroke-miterlimit:10;}
	.st5{fill:#1C75BC;stroke:#1C75BC;stroke-width:1.0843;stroke-miterlimit:10;}
	.st6{fill:#ED1C24;stroke:#000000;stroke-width:1.5;stroke-miterlimit:10;}
	.st7{fill:#C2B59B;}
	.st8{fill:none;stroke:#1C75BC;stroke-width:3;stroke-miterlimit:10;}
	.st9{fill:#F1F2F2;stroke:#C2B59B;stroke-width:0.9624;stroke-miterlimit:10;}
	.st10{fill:#BCBEC0;stroke:#999999;stroke-width:3;stroke-miterlimit:10;}
	.st11{fill:#009966;}
	.st12{fill:#F1F2F2;stroke:#C2B59B;stroke-width:0.914;stroke-miterlimit:10;}
]]>
</style>
<rect class="st10" width="610.623" height="610.623"/>
<g>
	<g>
		<g>
			<path class="st11" d="M395.492,162.979c0,28.803,23.348,52.153,52.152,52.153h162.979V0H395.492V162.979z"/>
		</g>
	</g>
	<g>
		<g>
			<path class="st11" d="M0,0v215.131h162.979c28.803,0,52.153-23.348,52.153-52.153V0H0z"/>
		</g>
	</g>
	<g>
		<g>
			<path class="st11" d="M162.979,395.492H0v215.131h215.131V447.645C215.131,418.841,191.783,395.492,162.979,395.492z"/>
		</g>
	</g>
	<g>
		<g>
			<path class="st11" d="M610.623,610.623V395.492H447.644c-28.803,0-52.152,23.348-52.152,52.153v162.978H610.623z"/>
		</g>
	</g>
</g>
<line class="st0" x1="305.312" y1="215.13" x2="305.312" y2="-10.44"/>
<line class="st0" x1="215.131" y1="305.312" x2="-10.438" y2="305.312"/>
<line class="st0" x1="305.312" y1="395.492" x2="305.312" y2="621.062"/>
<line class="st0" x1="395.492" y1="305.312" x2="621.062" y2="305.312"/>
<g>
	<g>
		<path class="st6" d="M260.427,538.059c15.902,0,22.929-5.711,23.298-27.082c0.397-22.866,4.157-82.381,0-98.18
			c-2.045-7.774,0.088-17.855-26.625-17.855c-26.716,0-24.582,10.081-26.628,17.855c-4.156,15.798-0.396,75.313,0,98.18
			c0.371,21.371,7.397,27.082,23.3,27.082H260.427z"/>
	</g>
	<g>
		<path class="st7" d="M273.839,451.13c0,0-6.568-2.128-16.739-2.128s-16.737,2.128-16.737,2.128s-6.683-16.529-8.659-28.225
			c-0.309-1.822,15.226-3.195,25.396-3.195s25.594,1.062,25.397,3.195C281.416,434.601,273.839,451.13,273.839,451.13z"/>
		<path class="st7" d="M235.169,490.554c0,0,11.76,2.13,21.927,2.13c10.17,0,21.933-2.13,21.933-2.13s-1.711,16.696-0.004,28.244
			c0.265,1.8-11.443,3.938-20.222,3.938c-8.782,0-23.801-1.831-23.631-3.938C236.106,507.25,235.169,490.554,235.169,490.554z"/>
		<g>
			<path class="st7" d="M230.232,430.943c-0.163,31.982,0.926,85.948,2.13,68.786c1.337-19.053,4.664-26.361,4.664-26.361
				l1.222-20.871C234.886,446.654,230.262,425.282,230.232,430.943z"/>
			<path class="st7" d="M283.967,430.943c0.164,31.982-0.926,85.948-2.13,68.786c-1.337-19.053-4.663-26.361-4.663-26.361
				l-1.222-20.871C279.315,446.654,283.938,425.282,283.967,430.943z"/>
		</g>
	</g>
	<g>
		<path class="st12" d="M239.046,400.284c-2.928,0-7.31,7.62-5.845,10.156c0.732,1.264,4.257-3.089,5.845-3.809
			C241.545,405.502,239.046,400.284,239.046,400.284z"/>
		<path class="st12" d="M275.152,400.284c2.93,0,7.311,7.62,5.845,10.156c-0.731,1.264-4.255-3.089-5.845-3.809
			C272.654,405.502,275.152,400.284,275.152,400.284z"/>
	</g>
</g>
<g>
	<path class="st5" d="M554.476,346.306c0,0,0.467-15.573-9.887-21.596c-5.838-3.397-81.895-3.826-110.502-1.085
		c-14.115,1.354-14.744,22.967-14.744,22.967v6.491c0,0,0.629,21.614,14.744,22.967c28.607,2.741,104.664,2.312,110.502-1.085
		c10.354-6.023,9.887-21.596,9.887-21.596V346.306z"/>
	<path class="st7" d="M480.8,346.949c0-9.504,1.516-10.964,1.516-18.798c0,0-20.502-5.902-22.611-3.009
		c-3.623,4.964-5.445,17.208-5.445,23.251v2.887c0,6.045,1.822,18.289,5.445,23.251c2.109,2.893,22.611-3.007,22.611-3.007
		c0-7.835-1.516-9.296-1.516-18.8V346.949z"/>
	<path class="st7" d="M532.64,352.328c0,8.373-0.916,9.661-0.916,16.563c0,0,11.982,3.889,13.629,1.566
		c5.451-7.685,6.535-14.077,6.535-19.402v-2.543c0-5.326-1.084-11.717-6.535-19.402c-1.648-2.323-13.629,1.566-13.629,1.566
		c0,6.904,0.916,8.19,0.916,16.563V352.328z"/>
	<g>
		<path class="st7" d="M538.685,374.374l-10.209-3.034l-37.324,0.36c0,0-18.914,4.477-15.742,4.477
			C506.867,376.177,538.685,374.374,538.685,374.374z"/>
		<path class="st7" d="M538.685,325.3l-10.209,3.034l-37.324-0.36c0,0-18.914-4.477-15.742-4.477
			C506.867,323.497,538.685,325.3,538.685,325.3z"/>
	</g>
	<g>
		<path class="st9" d="M426.568,367.316c0.605,0.895,5.805,3.901,5.477,5.801c-0.459,2.651-8.291-4.122-8.006-6.892
			C424.259,364.061,425.261,365.382,426.568,367.316z"/>
		<path class="st9" d="M426.568,332.357c0.605-0.895,5.805-3.901,5.477-5.801c-0.459-2.651-8.291,4.122-8.006,6.892
			C424.259,335.612,425.261,334.291,426.568,332.357z"/>
	</g>
	<path class="st4" d="M554.476,346.306c0,0,0.467-15.573-9.887-21.596c-5.838-3.397-81.895-3.826-110.502-1.085
		c-14.115,1.354-14.744,22.967-14.744,22.967v6.491c0,0,0.629,21.614,14.744,22.967c28.607,2.741,104.664,2.312,110.502-1.085
		c10.354-6.023,9.887-21.596,9.887-21.596V346.306z"/>
</g>
<g>
	<path d="M498.433,337.838c1.367-0.324,3.563-0.54,5.723-0.54c3.133,0,5.148,0.54,6.623,1.764c1.26,0.936,2.053,2.376,2.053,4.284
		c0,2.375-1.584,4.427-4.104,5.327v0.108c2.303,0.54,5.004,2.448,5.004,6.047c0,2.088-0.828,3.708-2.088,4.859
		c-1.656,1.548-4.393,2.268-8.352,2.268c-2.16,0-3.816-0.144-4.859-0.288V337.838z M501.564,347.773h2.844
		c3.275,0,5.221-1.764,5.221-4.104c0-2.808-2.125-3.959-5.293-3.959c-1.439,0-2.268,0.108-2.771,0.216V347.773z M501.564,359.364
		c0.648,0.108,1.512,0.144,2.629,0.144c3.238,0,6.227-1.188,6.227-4.715c0-3.275-2.844-4.679-6.264-4.679h-2.592V359.364z"/>
</g>
<g>
	<path d="M252.958,474.352l-2.52,7.631h-3.24l8.279-24.261h3.744l8.278,24.261h-3.348l-2.592-7.631H252.958z M260.949,471.904
		l-2.412-6.983c-0.54-1.583-0.899-3.023-1.26-4.427h-0.072c-0.359,1.404-0.72,2.916-1.224,4.392l-2.376,7.019H260.949z"/>
</g>
<g>
	<g>
		<line class="st8" x1="146.772" y1="349.837" x2="413.951" y2="349.837"/>
		<g>
			<polygon class="st2" points="151.149,364.711 125.243,349.755 151.149,334.796 			"/>
		</g>
	</g>
</g>
<g>
	<g>
		<line class="st1" x1="257.1" y1="144.741" x2="257.1" y2="389.878"/>
		<g>
			<polygon class="st3" points="242.226,149.118 257.182,123.212 272.141,149.118 			"/>
		</g>
	</g>
</g>
</svg>
