<?xml version="1.0" encoding="iso-8859-1"?>
<!-- Generator: Adobe Illustrator 15.0.2, SVG Export Plug-In . SVG Version: 6.00 Build 0)  -->
<!DOCTYPE svg PUBLIC "-//W3C//DTD SVG 1.1//EN" "http://www.w3.org/Graphics/SVG/1.1/DTD/svg11.dtd">
<svg version="1.1" id="Layer_1" xmlns="http://www.w3.org/2000/svg" xmlns:xlink="http://www.w3.org/1999/xlink" x="0px" y="0px"
	 width="607.777px" height="607.777px" viewBox="0 0 607.777 607.777" style="enable-background:new 0 0 607.777 607.777;"
	 xml:space="preserve">
<style type="text/css">
<![CDATA[
	.st0{fill:none;stroke:#FFFFFF;stroke-width:6;stroke-miterlimit:10;stroke-dasharray:36;}
	.st1{fill:none;stroke:#ED1C24;stroke-width:3;stroke-miterlimit:10;}
	.st2{opacity:0.88;}
	.st3{fill:#1C75BC;}
	.st4{fill:#ED1C24;}
	.st5{fill:none;stroke:#000000;stroke-width:1.5;stroke-miterlimit:10;}
	.st6{fill:#1C75BC;stroke:#1C75BC;stroke-width:1.0843;stroke-miterlimit:10;}
	.st7{fill:#ED1C24;stroke:#000000;stroke-width:1.5;stroke-miterlimit:10;}
	.st8{fill:#C2B59B;}
	.st9{fill:none;stroke:#1C75BC;stroke-width:3;stroke-miterlimit:10;}
	.st10{fill:#FFF200;}
	.st11{fill:#F1F2F2;stroke:#C2B59B;stroke-width:0.9624;stroke-miterlimit:10;}
	.st12{fill:#BCBEC0;stroke:#999999;stroke-width:3;stroke-miterlimit:10;}
	.st13{fill:#009966;}
	.st14{fill:#F1F2F2;stroke:#C2B59B;stroke-width:0.914;stroke-miterlimit:10;}
]]>
</style>
<rect class="st12" width="610.623" height="610.623"/>
<g>
	<g>
		<g>
			<path class="st13" d="M395.492,162.979c0,28.803,23.348,52.153,52.152,52.153h162.979V0H395.492V162.979z"/>
		</g>
	</g>
	<g>
		<g>
			<path class="st13" d="M0,0v215.131h162.979c28.803,0,52.153-23.348,52.153-52.153V0H0z"/>
		</g>
	</g>
	<g>
		<g>
			<path class="st13" d="M162.979,395.492H0v215.131h215.131V447.645C215.131,418.841,191.783,395.492,162.979,395.492z"/>
		</g>
	</g>
	<g>
		<g>
			<path class="st13" d="M610.623,610.623V395.492H447.644c-28.803,0-52.152,23.348-52.152,52.153v162.978H610.623z"/>
		</g>
	</g>
</g>
<line class="st0" x1="305.312" y1="215.13" x2="305.312" y2="-10.44"/>
<line class="st0" x1="215.131" y1="305.312" x2="-10.438" y2="305.312"/>
<line class="st0" x1="305.312" y1="395.492" x2="305.312" y2="621.062"/>
<line class="st0" x1="395.492" y1="305.312" x2="621.062" y2="305.312"/>
<g>
	<g class="st2">
		<g>
			<polygon class="st10" points="424.677,320.632 408.5,319.2 412.716,320.165 408.476,315.434 417.939,329.461 416.828,335.957 
				412.803,334.748 407.522,340.987 405.326,333.792 398.06,335.85 396.223,330.494 403.579,323.07 411.882,320.632 
				400.581,317.335 406.522,317.153 408.523,316.615 406.049,308.809 412.251,319.208 412.803,328.948 414.763,313.571 
				419.193,309.481 422.689,310.613 434.818,307.405 423.671,317.724 			"/>
		</g>
		<g>
			<polygon class="st10" points="415.251,307.728 414.14,318.388 409.787,324.979 421.677,314.581 432.648,313.372 436.501,318.682 
				432.517,324.347 415.525,321.677 423.996,330.364 415.074,323.525 414.825,326.063 412.61,316.913 412.009,324.307 
				410.528,324.957 402.679,332.625 396.002,332.494 393.761,327.585 390.184,322.486 408.031,319.842 399.941,314.43 
				396.219,305.956 404,307.524 405.955,300.499 411.363,300.553 			"/>
		</g>
		<g>
			<polygon class="st10" points="416.601,311.696 412.121,322.22 431.804,305.529 418.507,318.394 413.732,320.612 422.769,321.853 
				421.285,323.981 421.367,327.068 416.117,324.567 418.185,333.705 413.054,321.936 409.752,344.071 405.757,337.838 
				403.745,332.571 397.951,332.327 399.694,326.177 401.95,322.116 392.834,318.082 394.648,313.12 413.662,321.801 
				400.668,304.496 412.496,320.573 413.148,324.134 412.843,321.053 			"/>
		</g>
		<g>
			<polygon class="st10" points="412.941,314.417 414.11,315.128 412.249,320.932 402.524,330.496 401.277,326.938 409.403,321.319 
				413.84,320.683 400.144,316.837 393.174,308.129 396.374,302.63 416.001,327.63 410.245,309.905 413.433,297.297 
				410.587,329.389 410.099,325.989 428.783,304.991 428.494,311.906 412.478,320.896 431.771,321.153 426.833,324.862 
				421.855,326.166 430.029,339.533 422.992,340.066 416.72,337.474 			"/>
		</g>
		<g>
			<polygon class="st10" points="420.992,328.644 416.812,327.253 414.595,326.917 412.802,313.014 408.004,338.781 
				407.075,330.379 406.64,326.524 405.834,324.468 395.047,325.434 391.475,320.631 399.831,317.174 398.297,312.21 
				407.008,315.125 406.33,309.525 412.375,319.728 412.804,321.88 414.522,314.644 411.711,323.296 414.522,319.393 
				432.677,308.947 416.58,319.766 433.601,320.632 417.4,321.729 431.439,331.566 			"/>
		</g>
	</g>
	<g>
		<g class="st2">
			<g>
				<polygon class="st10" points="559.148,323.028 558.4,327.798 534.886,318.804 539.125,320.417 547.937,335.122 542.931,329.83 
					541.037,342.455 540.511,324.341 544.902,315.208 525.894,338.669 522.117,334.333 523.533,327.834 530.892,323.028 
					520.007,317.209 534.744,319.541 523.957,305.309 532.406,307.735 537.839,311.019 541.037,318.338 543.089,315.592 
					553.003,301.559 557.263,306.221 544.287,321.427 542.695,322.758 				"/>
			</g>
			<g>
				<polygon class="st10" points="541.244,322.645 540.828,324.211 550.882,311.381 553.294,314.496 553.724,318.489 
					565.667,321.005 533.316,321.369 534.705,319.467 554.068,334.446 553.933,342.546 542.826,327.763 541.828,333.711 
					540.835,323.373 538.273,328.435 533.611,331.665 541.105,322.524 520.556,330.527 526.933,324.166 541.021,323.17 
					547.925,326.875 539.337,322.007 537.029,317.42 536.951,311.315 539.947,308.036 				"/>
			</g>
			<g>
				<polygon class="st10" points="547.656,306.918 536.533,329.919 553.166,313.563 553.306,317.858 564.255,319.714 555.138,324.8 
					546.972,325.283 536.472,318.87 547.042,330.692 538.324,315.338 541.283,324.314 539.994,330.545 541.039,322.292 
					528.908,339.229 526.093,334.804 540.552,322.933 541.046,322.907 522.134,320.625 546.816,325.814 523.369,309.243 
					545.894,330.39 532.707,302.401 540.189,316.901 542.517,312.036 				"/>
			</g>
			<g>
				<polygon class="st10" points="540.615,338.256 539.492,327.808 543.388,318.291 525.375,338.343 540.347,323.036 
					524.587,327.051 529.591,322.722 517.808,315.874 544.488,325.736 544.871,327.947 537.806,317.336 539.687,317.753 
					541.136,319.943 539.943,327.76 541.265,323.294 551.919,312.548 553.783,316.014 545.621,322.039 547.107,323.182 
					561.408,329.273 544.996,325.21 540.246,321.555 545.458,331.08 541.923,326.234 				"/>
			</g>
			<g>
				<polygon class="st10" points="552.56,334.533 537.173,315.326 543.755,332.977 541.035,339.085 539.355,328.87 543.556,317.759 
					534.066,329.765 539.777,323.393 547.824,320.921 521.142,323.029 535.468,321.659 546.496,326.756 537.08,319.448 
					536.423,315.314 538.279,312.94 541.035,325.929 546.695,301.479 539.539,326.422 542.914,321.625 561,311.295 539.755,323.587 
					538.566,323.03 552.607,326.091 546.8,326.133 				"/>
			</g>
		</g>
	</g>
</g>
<g>
	<g>
		<path class="st7" d="M40.939,272.165c0,15.902,5.711,22.929,27.082,23.298c22.866,0.397,82.381,4.157,98.18,0
			c7.774-2.045,17.855,0.088,17.855-26.625c0-26.716-10.081-24.582-17.855-26.628c-15.798-4.156-75.313-0.396-98.18,0
			c-21.371,0.371-27.082,7.397-27.082,23.3V272.165z"/>
	</g>
	<g>
		<path class="st8" d="M127.867,285.577c0,0,2.128-6.568,2.128-16.739s-2.128-16.737-2.128-16.737s16.529-6.683,28.225-8.659
			c1.822-0.309,3.195,15.226,3.195,25.396s-1.062,25.594-3.195,25.397C144.396,293.153,127.867,285.577,127.867,285.577z"/>
		<path class="st8" d="M88.444,246.906c0,0-2.13,11.76-2.13,21.927c0,10.17,2.13,21.933,2.13,21.933s-16.696-1.711-28.244-0.004
			c-1.8,0.265-3.938-11.443-3.938-20.222c0-8.782,1.831-23.801,3.938-23.631C71.748,247.844,88.444,246.906,88.444,246.906z"/>
		<g>
			<path class="st8" d="M148.054,241.97c-31.982-0.163-85.948,0.926-68.786,2.13c19.053,1.337,26.361,4.664,26.361,4.664
				l20.871,1.222C132.344,246.624,153.716,241.999,148.054,241.97z"/>
			<path class="st8" d="M148.054,295.705c-31.982,0.164-85.948-0.926-68.786-2.13c19.053-1.337,26.361-4.663,26.361-4.663
				l20.871-1.222C132.344,291.052,153.716,295.675,148.054,295.705z"/>
		</g>
	</g>
	<g>
		<path class="st14" d="M178.713,250.784c0-2.928-7.62-7.31-10.156-5.845c-1.264,0.732,3.089,4.257,3.809,5.845
			C173.496,253.283,178.713,250.784,178.713,250.784z"/>
		<path class="st14" d="M178.713,286.889c0,2.93-7.62,7.311-10.156,5.845c-1.264-0.731,3.089-4.255,3.809-5.845
			C173.496,284.392,178.713,286.889,178.713,286.889z"/>
	</g>
</g>
<g>
	<path class="st6" d="M544.484,353.368c0,0,0.467,15.573-9.887,21.596c-5.838,3.397-81.895,3.826-110.502,1.085
		c-14.114-1.354-14.744-22.967-14.744-22.967v-6.491c0,0,0.63-21.614,14.744-22.967c28.607-2.741,104.664-2.312,110.502,1.085
		c10.354,6.023,9.887,21.596,9.887,21.596V353.368z"/>
	<path class="st8" d="M470.808,352.725c0,9.504,1.516,10.964,1.516,18.798c0,0-20.502,5.902-22.611,3.009
		c-3.623-4.964-5.445-17.208-5.445-23.251v-2.887c0-6.045,1.822-18.289,5.445-23.251c2.109-2.893,22.611,3.007,22.611,3.007
		c0,7.835-1.516,9.296-1.516,18.8V352.725z"/>
	<path class="st8" d="M522.648,347.346c0-8.373-0.916-9.661-0.916-16.563c0,0,11.982-3.889,13.629-1.566
		c5.451,7.685,6.535,14.077,6.535,19.402v2.543c0,5.326-1.084,11.717-6.535,19.402c-1.648,2.323-13.629-1.566-13.629-1.566
		c0-6.904,0.916-8.19,0.916-16.563V347.346z"/>
	<g>
		<path class="st8" d="M528.693,325.3l-10.209,3.034l-37.324-0.36c0,0-18.914-4.477-15.742-4.477
			C496.875,323.497,528.693,325.3,528.693,325.3z"/>
		<path class="st8" d="M528.693,374.374l-10.209-3.034l-37.324,0.36c0,0-18.914,4.477-15.742,4.477
			C496.875,376.177,528.693,374.374,528.693,374.374z"/>
	</g>
	<g>
		<path class="st11" d="M416.576,332.357c0.607-0.895,5.805-3.901,5.477-5.801c-0.459-2.651-8.291,4.122-8.006,6.892
			C414.267,335.612,415.269,334.291,416.576,332.357z"/>
		<path class="st11" d="M416.576,367.316c0.607,0.895,5.805,3.901,5.477,5.801c-0.459,2.651-8.291-4.122-8.006-6.892
			C414.267,364.061,415.269,365.382,416.576,367.316z"/>
	</g>
	<path class="st5" d="M544.484,353.368c0,0,0.467,15.573-9.887,21.596c-5.838,3.397-81.895,3.826-110.502,1.085
		c-14.114-1.354-14.744-22.967-14.744-22.967v-6.491c0,0,0.63-21.614,14.744-22.967c28.607-2.741,104.664-2.312,110.502,1.085
		c10.354,6.023,9.887,21.596,9.887,21.596V353.368z"/>
</g>
<g>
	<g>
		<line class="st1" x1="187.701" y1="268.837" x2="544.595" y2="268.837"/>
		<g>
			<path class="st4" d="M562.701,268.837c-8.52,3.161-19.09,8.555-25.641,14.268l5.16-14.268l-5.16-14.265
				C543.611,260.285,554.181,265.679,562.701,268.837z"/>
		</g>
	</g>
</g>
<g>
	<g>
		<path class="st9" d="M402.951,349.837c-57.75,0.75-139.5-30.75-141-116.25c-0.929-52.953-0.708-88.932-0.404-108.652"/>
		<g>
			<path class="st3" d="M261.951,106.837c3.008,8.575,8.21,19.24,13.805,25.894l-14.172-5.416l-14.355,4.904
				C253.058,125.77,258.641,115.298,261.951,106.837z"/>
		</g>
	</g>
</g>
<g>
	<path d="M488.332,337.188c1.367-0.324,3.563-0.54,5.723-0.54c3.133,0,5.148,0.54,6.623,1.764c1.26,0.936,2.053,2.376,2.053,4.284
		c0,2.375-1.584,4.427-4.104,5.327v0.108c2.303,0.54,5.004,2.448,5.004,6.047c0,2.088-0.828,3.708-2.088,4.859
		c-1.656,1.548-4.393,2.268-8.352,2.268c-2.16,0-3.816-0.144-4.859-0.288V337.188z M491.462,347.123h2.844
		c3.275,0,5.221-1.764,5.221-4.104c0-2.808-2.125-3.959-5.293-3.959c-1.439,0-2.268,0.108-2.771,0.216V347.123z M491.462,358.713
		c0.648,0.108,1.512,0.144,2.629,0.144c3.238,0,6.227-1.188,6.227-4.715c0-3.275-2.844-4.679-6.264-4.679h-2.592V358.713z"/>
</g>
<g>
	<path d="M105.006,273.66l-2.52,7.631h-3.24l8.279-24.261h3.744l8.278,24.261H116.2l-2.592-7.631H105.006z M112.997,271.212
		l-2.412-6.983c-0.54-1.583-0.899-3.023-1.26-4.427h-0.072c-0.359,1.404-0.72,2.916-1.224,4.392l-2.376,7.019H112.997z"/>
</g>
</svg>
