<?xml version="1.0" encoding="UTF-8" standalone="no"?>
<svg
   xmlns:dc="http://purl.org/dc/elements/1.1/"
   xmlns:cc="http://creativecommons.org/ns#"
   xmlns:rdf="http://www.w3.org/1999/02/22-rdf-syntax-ns#"
   xmlns:svg="http://www.w3.org/2000/svg"
   xmlns="http://www.w3.org/2000/svg"
   xmlns:sodipodi="http://sodipodi.sourceforge.net/DTD/sodipodi-0.dtd"
   xmlns:inkscape="http://www.inkscape.org/namespaces/inkscape"
   width="123.60604"
   height="123.57282"
   viewBox="0 0 348.84375 348.74995"
   version="1.1"
   id="svg2"
   inkscape:version="0.48.2 r9819"
   sodipodi:docname="AJAX1.svg">
  <metadata
     id="metadata62">
    <rdf:RDF>
      <cc:Work
         rdf:about="">
        <dc:format>image/svg+xml</dc:format>
        <dc:type
           rdf:resource="http://purl.org/dc/dcmitype/StillImage" />
        <dc:title />
      </cc:Work>
    </rdf:RDF>
  </metadata>
  <defs
     id="defs60" />
  <sodipodi:namedview
     pagecolor="#ffffff"
     bordercolor="#666666"
     borderopacity="1"
     objecttolerance="10"
     gridtolerance="10"
     guidetolerance="10"
     inkscape:pageopacity="0"
     inkscape:pageshadow="2"
     inkscape:window-width="1280"
     inkscape:window-height="1004"
     id="namedview58"
     showgrid="false"
     fit-margin-top="0"
     fit-margin-left="0"
     fit-margin-right="0"
     fit-margin-bottom="0"
     inkscape:zoom="3.3053845"
     inkscape:cx="15.431134"
     inkscape:cy="36.479417"
     inkscape:window-x="-8"
     inkscape:window-y="-8"
     inkscape:window-maximized="1"
     inkscape:current-layer="svg2" />
  <!-- draw the bicycle -->
  <!-- RIGHT -->
  <!-- LANE -->
  <!-- ONLY -->
  <path
     inkscape:connector-curvature="0"
     d="m 1.39677,102.67313 0,143.57704 101.37424,101.0885 143.29129,0 101.37774,-101.39189 0,-143.27365 L 246.0623,1.4188494 l -143.29129,0 L 1.39677,102.67313 z"
     style="fill:#ffffff;fill-opacity:1;fill-rule:evenodd;stroke:#000000;stroke-width:2.82222247;stroke-linecap:butt;stroke-linejoin:miter;stroke-miterlimit:2.61299992;stroke-opacity:1;stroke-dasharray:none"
     id="path3077" />
  <path
     inkscape:connector-curvature="0"
     d="m 10.61486,242.42606 0,-135.94645 95.96262,-95.96262 135.66071,0 95.9626,95.96262 0,135.6607 -96.10372,95.96264 -135.6607,0 -95.82151,-95.67689"
     style="fill:#c0111e;fill-opacity:1;fill-rule:evenodd;stroke:none"
     id="path3081" />
  <path
     inkscape:connector-curvature="0"
     d="m 28.94167,198.52286 16.26305,0 c 0.14817,13.18684 4.25098,19.63562 15.38817,19.92842 9.22867,0 14.79903,-7.76817 14.79903,-17.145 0,-2.49061 -0.44097,-5.27403 -1.17475,-7.91281 -4.98122,-15.67744 -16.55586,-17.87525 -27.10745,-25.49525 -7.76464,-5.42219 -12.45305,-15.24 -12.45305,-25.64342 0,-15.97025 14.50622,-27.83769 29.44989,-27.83769 15.97378,0 27.84122,12.60122 27.84122,29.15708 l -15.82561,0 c 0,-5.56683 -6.30061,-13.18683 -12.01561,-13.18683 -6.15245,0 -13.18684,5.12939 -13.18684,12.01561 0,4.98122 1.6122,10.40342 7.76817,13.47964 16.55586,8.20561 32.96709,22.41903 32.96709,45.42367 0,20.51403 -14.06525,33.11525 -31.06209,33.11525 -17.29317,0 -31.65122,-11.86744 -31.65122,-35.89867"
     style="fill:#ffffff;fill-opacity:1;fill-rule:evenodd;stroke:none"
     id="path3085" />
  <path
     inkscape:connector-curvature="0"
     d="m 102.64401,116.75955 57.73209,0 0,15.24 -20.22123,0 0,100.07601 -16.99683,0 0,-100.07601 -20.51403,0 0,-15.24"
     style="fill:#ffffff;fill-opacity:1;fill-rule:evenodd;stroke:none"
     id="path3089" />
  <path
     inkscape:connector-curvature="0"
     d="m 205.35879,234.42153 c -25.49525,0 -33.40805,-26.9628 -33.40805,-60.07453 0,-33.11878 7.62,-59.92989 33.70086,-59.92989 26.08086,0 32.97061,26.81111 32.97061,59.92989 0,36.77709 -10.11061,60.07453 -33.26342,60.07453 z m 0,-16.70403 c 13.18684,0 17.14501,-19.19464 17.14501,-43.3705 0,-24.32403 -3.66537,-43.815 -17.14501,-43.815 -13.47964,0 -16.99683,19.49097 -16.99683,43.815 0,24.17586 2.93158,43.3705 16.99683,43.3705"
     style="fill:#ffffff;fill-opacity:1;fill-rule:evenodd;stroke:none"
     id="path3093" />
  <path
     inkscape:connector-curvature="0"
     d="m 256.93844,116.75955 33.84904,0 c 18.02339,0 29.15709,12.89403 29.15709,32.96709 0,20.955 -13.77248,32.82244 -29.15712,32.82244 l -17.87876,0 0,49.52648 -15.97025,0 0,-115.31601 z m 15.97025,16.11842 0,32.67428 20.22124,0 c 6.88622,0 10.84439,-7.62 10.84439,-16.84867 0,-7.18256 -4.83659,-15.82561 -11.43003,-15.82561 l -19.6356,0"
     style="fill:#ffffff;fill-opacity:1;fill-rule:evenodd;stroke:none"
     id="path3097" />
</svg>
